<svg width="0" height="0" class="hidden">
  <symbol xmlns="http://www.w3.org/2000/svg" viewBox="0 0 24 16" id="arrow">
    <path d="M20.0827 9.4674C19.9523 8.49 19.868 7.61755 19.8298 6.85006C19.8133 6.07005 19.8429 5.39498 19.9187 4.82488L0.948718 15.7772L0.0512822 14.2228L19.0212 3.27047C18.4754 3.02637 17.8688 2.70217 17.2016 2.29788C16.556 1.88106 15.8497 1.38415 15.0827 0.807144L16.2216 0.149629C18.6281 1.16175 20.829 1.6675 22.8244 1.6669L23.209 2.33308C22.1965 4.03612 21.5341 6.19506 21.2216 8.80988L20.0827 9.4674Z"></path>
  </symbol>
  <symbol fill="none" xmlns="http://www.w3.org/2000/svg" viewBox="0 0 36 36" id="close">
    <path d="M27 9L9 27" stroke-width="2" stroke-linecap="round" stroke-linejoin="round"></path>
    <path d="M9 9L27 27" stroke-width="2" stroke-linecap="round" stroke-linejoin="round"></path>
  </symbol>
  <symbol xmlns="http://www.w3.org/2000/svg" viewBox="0 0 28 28" id="facebook">
    <path d="M17.0804 4.06014C17.2904 4.06014 17.5004 4.06014 17.9204 4.06014V7.21014C17.7104 7.21014 17.2904 7.21014 16.8704 7.21014C16.4504 7.21014 16.0304 7.21014 15.8204 7.42014C15.6104 7.63014 15.6104 7.84014 15.6104 8.33014C15.6104 8.75014 15.6104 9.03014 15.6104 9.45014H17.9204V12.1101H15.6104V23.6601H12.0404V12.0401H10.1504V9.38014H12.0404V8.47014C12.0404 6.93014 12.2504 5.81014 12.6704 5.32014C13.3004 4.41014 14.5604 3.99014 16.4504 3.99014C16.6604 4.06014 16.8704 4.06014 17.0804 4.06014Z"></path>
  </symbol>
  <symbol xmlns="http://www.w3.org/2000/svg" viewBox="0 0 28 28" id="instagram">
    <g opacity="0.8">
      <path d="M25.1277 9.41145C25.114 8.47139 24.9398 7.53878 24.6065 6.65957C24.0231 5.15821 22.8352 3.97103 21.3313 3.38985C20.4618 3.06325 19.5426 2.88816 18.6122 2.86829C17.4155 2.81489 17.0361 2.79999 13.9986 2.79999C10.961 2.79999 10.5716 2.79999 9.38372 2.86829C8.45454 2.88816 7.5353 3.06325 6.66582 3.38985C5.16196 3.97103 3.97279 5.15821 3.39065 6.65957C3.06351 7.52761 2.88688 8.44532 2.86946 9.37296C2.81598 10.5688 2.7998 10.9476 2.7998 13.9801C2.7998 17.0127 2.7998 17.4001 2.86946 18.5873C2.88812 19.5162 3.06351 20.4326 3.39065 21.3032C3.97404 22.8033 5.16195 23.9905 6.66706 24.5716C7.53281 24.9094 8.45205 25.1006 9.38497 25.1304C10.5828 25.1838 10.9622 25.2 13.9998 25.2C17.0374 25.2 17.4267 25.2 18.6146 25.1304C19.5438 25.1118 20.4631 24.9367 21.3338 24.6101C22.8377 24.0277 24.0256 22.8405 24.609 21.3404C24.9361 20.4711 25.1115 19.5547 25.1301 18.6245C25.1836 17.4299 25.1998 17.0511 25.1998 14.0174C25.1973 10.9848 25.1973 10.5999 25.1277 9.41145ZM13.9911 19.7149C10.8142 19.7149 8.24059 17.1455 8.24059 13.9739C8.24059 10.8023 10.8142 8.23296 13.9911 8.23296C17.1655 8.23296 19.7416 10.8023 19.7416 13.9739C19.7416 17.1455 17.1655 19.7149 13.9911 19.7149ZM19.9705 9.3593C19.2279 9.3593 18.6296 8.76074 18.6296 8.02061C18.6296 7.28049 19.2279 6.68193 19.9705 6.68193C20.7106 6.68193 21.3102 7.28049 21.3102 8.02061C21.3102 8.76074 20.7106 9.3593 19.9705 9.3593Z"></path>
      <path d="M13.9928 17.479C15.9277 17.479 17.4963 15.9104 17.4963 13.9755C17.4963 12.0406 15.9277 10.472 13.9928 10.472C12.0578 10.472 10.4893 12.0406 10.4893 13.9755C10.4893 15.9104 12.0578 17.479 13.9928 17.479Z"></path>
    </g>
  </symbol>
  <symbol fill="none" xmlns="http://www.w3.org/2000/svg" viewBox="0 0 36 24" id="nav">
    <line x1="6.47852" y1="4.09091" x2="35.0003" y2="4.09091" stroke-width="2" stroke-linecap="round"></line>
    <line x1="6.47852" y1="18.6364" x2="35.0003" y2="18.6364" stroke-width="2" stroke-linecap="round"></line>
    <line x1="15.0869" y1="11.3636" x2="35" y2="11.3636" stroke-width="2" stroke-linecap="round"></line>
  </symbol>
  <symbol xmlns="http://www.w3.org/2000/svg" viewBox="0 0 28 28" id="youtube">
    <g opacity="0.8">
      <path fill-rule="evenodd" clip-rule="evenodd" d="M21.2104 5.24986C20.0203 5.17986 17.5703 5.10986 13.8604 5.10986H13.3703C9.80034 5.10986 7.42038 5.17986 6.23038 5.31986C4.62038 5.45986 3.50034 5.87986 2.87034 6.43986C2.31034 6.92986 1.89036 7.83986 1.75036 9.02986C1.68036 9.79986 1.61035 11.4099 1.61035 13.8599V14.2099C1.61035 16.5199 1.68034 18.1299 1.82034 18.8999C2.03034 20.0199 2.38038 20.8599 3.08038 21.3499C3.78038 21.9099 4.97036 22.2599 6.65036 22.3999C7.84036 22.4699 10.2904 22.5399 14.0004 22.5399H14.4904C18.0604 22.5399 20.4404 22.4699 21.6304 22.3299C23.2404 22.1899 24.3604 21.7699 24.9904 21.2099C25.5504 20.7199 25.9703 19.8099 26.1103 18.6199C26.1803 17.8499 26.2504 16.2399 26.2504 13.7899V13.4399C26.2504 11.1299 26.1804 9.51986 26.0404 8.74986C25.8304 7.62986 25.4804 6.78986 24.7804 6.29986C24.0804 5.73986 22.8904 5.38986 21.2104 5.24986ZM18.4804 13.8599L10.7804 18.4799V9.23986L18.4804 13.8599Z"></path>
    </g>
  </symbol>
  <svg xmlns="http://www.w3.org/2000/svg" width="24" height="17" viewBox="0 0 24 17" fill="none">
<path d="M20.8244 9.9674C20.694 8.99 20.6096 8.11755 20.5715 7.35006C20.555 6.57005 20.5846 5.89498 20.6604 5.32488L1.69042 16.2772L0.792981 14.7228L19.7629 3.77047C19.2171 3.52637 18.6105 3.20217 17.9433 2.79788C17.2977 2.38106 16.5914 1.88415 15.8244 1.30714L16.9633 0.649629C19.3698 1.66175 21.5707 2.1675 23.5661 2.1669L23.9507 2.83308C22.9382 4.53612 22.2758 6.69506 21.9633 9.30988L20.8244 9.9674Z" fill="#ECD979"/>
<symbol id="icon-arrow" viewBox="0 0 37 32">
      <path d="M16 29.714c0 1.262 1.023 2.286 2.286 2.286s2.286-1.023 2.286-2.286v0h-4.571zM19.902 1.808c-0.414-0.413-0.985-0.669-1.616-0.669s-1.202 0.256-1.616 0.669l-14.546 14.546c-0.414 0.414-0.67 0.986-0.67 1.617 0 1.263 1.024 2.286 2.286 2.286 0.631 0 1.202-0.256 1.616-0.669l12.93-12.93 12.93 12.93c0.414 0.413 0.985 0.669 1.616 0.669 1.263 0 2.286-1.024 2.286-2.286 0-0.632-0.256-1.203-0.67-1.617l-14.546-14.546zM20.571 29.714v-26.288h-4.571v26.288h4.571z"></path>
    </symbol>
  </defs>
</svg>
</svg>